# xmcd
#
# Track frame offsets:
# 150
# 20482
# 36526
# 49025
# 62994
# 73567
# 90762
# 106613
# 121159
# 132051
# 137300
# 143366
# 159574
# 178556
# 195377
# 214098
# 226475
# 239432
# 254049
# 274315
#
# Disc length: 3801 seconds
#
#
# Revision: 0
# Processed by: cddbd v1.5.2PL0 Copyright (c) Steve Scherf et al.
# Submitted via: FreeRIP 2.95 
#
DISCID=130ed714
DTITLE=Violao De Ouro - seresta ao vivo 2005
DYEAR=2005
DGENRE=Seresta
TTITLE0=voa paloma
TTITLE1=daria o sol
TTITLE2=ô! candida
TTITLE3=ai adoraria
TTITLE4=dizer adeus
TTITLE5=sai de min
TTITLE6=jeitode ser
TTITLE7=nome no pençamento
TTITLE8=voce e doida
TTITLE9=sorria
TTITLE10=quem bate esquece
TTITLE11=sara
TTITLE12=dormi na praça
TTITLE13=a e amor
TTITLE14=bayby
TTITLE15=pare
TTITLE16=lua/luana
TTITLE17=eu vou roubar
TTITLE18=alguem
TTITLE19=todo amor
EXTD=
EXTT0=
EXTT1=
EXTT2=
EXTT3=
EXTT4=
EXTT5=
EXTT6=
EXTT7=
EXTT8=
EXTT9=
EXTT10=
EXTT11=
EXTT12=
EXTT13=
EXTT14=
EXTT15=
EXTT16=
EXTT17=
EXTT18=
EXTT19=
PLAYORDER=
